<?xml version="1.0" standalone="no"?>
<!DOCTYPE svg PUBLIC "-//W3C//DTD SVG 20010904//EN"
 "http://www.w3.org/TR/2001/REC-SVG-20010904/DTD/svg10.dtd">
<svg version="1.0" xmlns="http://www.w3.org/2000/svg"
 width="1008.000000pt" height="1008.000000pt" viewBox="0 0 1008.000000 1008.000000"
 preserveAspectRatio="xMidYMid meet">
<metadata>
Created by potrace 1.14, written by Peter Selinger 2001-2017
</metadata>
<g transform="translate(0.000000,1008.000000) scale(0.100000,-0.100000)"
fill="#000000" stroke="none">
<path d="M4850 9366 c-3 -3 -55 -8 -115 -11 -146 -9 -169 -11 -245 -20 -36 -4
-83 -9 -105 -11 -22 -1 -40 -3 -40 -4 0 -1 -11 -3 -25 -5 -50 -5 -116 -15
-140 -20 -14 -3 -38 -7 -55 -9 -16 -2 -41 -7 -55 -10 -14 -3 -36 -8 -50 -10
-14 -2 -68 -14 -120 -26 -52 -12 -106 -24 -120 -27 -14 -3 -32 -7 -40 -8 -8
-1 -22 -5 -30 -8 -8 -3 -35 -11 -60 -17 -86 -22 -418 -128 -435 -139 -5 -4
-28 -13 -50 -20 -72 -24 -370 -154 -373 -163 -2 -4 -10 -8 -18 -8 -22 0 -338
-169 -464 -248 -94 -59 -225 -146 -230 -152 -3 -4 -24 -18 -48 -32 -23 -13
-39 -28 -35 -31 3 -4 0 -7 -8 -7 -9 0 -24 -8 -35 -17 -10 -10 -37 -31 -59 -48
-75 -55 -197 -155 -285 -233 -83 -73 -351 -342 -410 -411 -25 -29 -60 -68 -77
-87 -18 -19 -33 -38 -33 -42 0 -5 -16 -23 -35 -42 -19 -19 -35 -39 -35 -46 0
-7 -4 -14 -8 -16 -5 -1 -44 -50 -86 -108 -43 -58 -84 -113 -92 -123 -8 -9 -14
-19 -14 -22 0 -7 -73 -118 -81 -125 -4 -3 -19 -29 -34 -58 -15 -29 -31 -54
-35 -57 -5 -3 -25 -38 -45 -77 -21 -40 -41 -75 -45 -78 -5 -4 -20 -34 -25 -50
0 -3 -29 -60 -63 -126 -33 -67 -58 -124 -55 -128 4 -3 1 -6 -5 -6 -7 0 -12 -9
-12 -20 0 -11 -4 -20 -8 -20 -4 0 -9 -10 -9 -22 -1 -13 -7 -24 -13 -26 -5 -2
-10 -10 -10 -18 0 -7 -12 -39 -26 -71 -15 -31 -27 -62 -29 -67 -1 -6 -5 -18
-8 -26 -42 -99 -158 -499 -183 -630 -2 -14 -9 -47 -14 -75 -26 -130 -40 -224
-54 -355 -4 -36 -9 -76 -11 -90 -14 -84 -27 -610 -16 -634 2 -5 5 -36 7 -70 4
-73 12 -166 20 -222 3 -22 7 -62 9 -90 2 -27 4 -49 5 -49 2 0 7 -25 14 -72 7
-47 13 -82 27 -153 7 -30 13 -62 14 -70 2 -8 4 -17 5 -20 1 -3 2 -8 1 -12 0
-3 6 -28 14 -55 8 -26 16 -59 19 -73 14 -69 80 -290 95 -319 7 -11 10 -21 7
-21 -6 0 97 -266 151 -389 70 -158 180 -370 250 -479 18 -29 33 -55 33 -58 0
-5 174 -267 191 -288 25 -30 45 -56 59 -76 16 -24 88 -118 105 -136 5 -7 39
-47 75 -90 36 -42 81 -94 100 -115 19 -21 40 -44 46 -51 6 -7 20 -20 30 -29
11 -9 42 -41 70 -70 28 -30 64 -66 80 -80 16 -15 36 -35 45 -45 9 -11 38 -38
66 -61 28 -24 64 -55 81 -71 17 -16 47 -42 67 -58 21 -16 54 -44 74 -61 20
-18 39 -33 43 -33 4 0 13 -6 20 -13 37 -36 319 -237 333 -237 2 0 -2 17 -10
38 -8 20 -16 49 -19 64 -3 15 -7 31 -10 36 -3 5 -7 19 -10 33 -3 13 -17 69
-31 124 -27 106 -34 138 -40 170 -5 25 -23 121 -30 155 -12 57 -18 96 -17 110
0 9 -25 29 -62 48 -35 18 -85 54 -112 80 -55 53 -97 102 -88 102 3 0 -4 12
-15 26 -12 15 -21 32 -21 40 0 7 -4 14 -8 16 -16 6 -64 162 -71 232 -19 176 6
323 78 461 35 67 48 86 96 139 27 30 106 91 128 99 9 4 17 14 18 24 0 10 2 36
4 58 2 22 6 69 9 105 3 36 7 79 10 95 2 17 7 55 10 86 4 31 8 66 11 77 2 11 7
42 11 69 3 26 8 57 11 68 2 11 6 34 8 50 3 17 14 71 25 120 11 50 22 101 24
115 3 14 12 49 20 78 8 29 14 55 14 57 1 13 15 71 20 80 3 5 7 16 8 25 1 12
21 79 48 165 2 6 4 12 4 15 0 3 15 43 32 90 17 47 33 90 34 95 2 6 7 19 11 30
4 11 19 49 32 85 43 114 68 170 76 170 4 0 43 -19 85 -42 83 -45 179 -93 255
-127 26 -11 67 -30 91 -41 25 -11 47 -20 49 -20 3 0 22 -8 43 -17 22 -9 41
-17 44 -18 3 -1 12 -4 20 -8 29 -11 165 -59 175 -61 20 -4 90 -28 110 -37 11
-5 38 -13 60 -18 22 -5 110 -27 196 -49 85 -22 171 -43 190 -47 18 -3 43 -8
54 -10 11 -2 45 -9 75 -15 30 -6 68 -13 83 -15 16 -2 40 -6 55 -9 15 -3 45 -8
67 -11 22 -3 51 -8 65 -10 14 -2 50 -7 80 -10 30 -3 69 -8 85 -10 69 -10 173
-19 217 -20 27 0 48 -2 48 -5 0 -13 768 -21 793 -8 12 6 17 5 17 -4 0 -8 3 -9
8 -3 4 6 34 10 67 11 69 1 231 13 266 19 13 3 49 7 79 10 30 2 73 7 95 11 22
3 52 6 68 7 15 0 27 5 27 9 0 5 4 6 10 3 5 -3 36 -1 67 4 32 6 74 13 93 16 19
3 42 8 50 10 8 2 33 7 55 10 67 11 79 14 105 20 14 3 36 8 50 11 14 3 43 10
65 16 53 14 76 19 100 22 11 2 20 4 20 5 0 2 7 4 15 6 8 1 41 10 74 20 32 9
64 18 70 20 6 1 18 5 26 8 17 6 152 51 160 52 17 4 111 36 140 48 31 13 66 26
80 30 3 1 39 16 80 35 41 18 87 38 102 43 36 14 262 129 268 137 6 8 86 52 94
52 6 0 46 -79 46 -91 0 -3 8 -24 17 -45 9 -22 17 -41 18 -44 1 -3 6 -16 12
-30 28 -69 91 -250 118 -340 1 -3 5 -12 8 -20 4 -8 9 -26 11 -40 3 -14 5 -26
7 -27 1 -2 2 -6 3 -10 2 -5 8 -28 15 -53 7 -25 14 -52 16 -60 2 -8 8 -35 15
-60 7 -25 14 -56 16 -70 3 -14 7 -31 9 -39 5 -12 22 -92 40 -186 3 -16 10 -57
15 -90 5 -33 12 -69 14 -80 2 -11 7 -40 10 -65 3 -25 8 -57 11 -72 3 -14 7
-52 10 -85 2 -32 7 -83 10 -113 3 -30 8 -80 9 -110 2 -40 8 -57 22 -65 17 -9
114 -104 142 -139 6 -8 12 -19 12 -25 0 -5 4 -11 8 -13 4 -1 21 -32 38 -68 27
-57 40 -96 60 -190 3 -14 7 -68 8 -120 8 -254 -99 -481 -284 -601 -27 -18 -52
-39 -54 -48 -9 -31 -19 -86 -22 -116 -1 -16 -5 -40 -8 -53 -15 -56 -17 -69
-21 -97 -3 -17 -19 -87 -36 -155 -17 -69 -33 -134 -35 -145 -2 -11 -15 -55
-28 -98 -13 -42 -21 -77 -17 -77 9 0 54 32 63 44 4 6 8 8 8 4 0 -5 20 7 43 25
24 17 63 46 86 62 47 33 194 148 256 200 218 181 469 434 641 645 16 19 32 37
37 38 4 2 7 8 7 14 0 6 6 16 13 22 18 14 143 183 193 261 21 33 46 68 54 78 8
9 24 33 35 51 11 19 42 72 70 117 86 146 215 393 215 413 0 8 5 16 11 18 5 2
11 10 13 18 1 8 9 31 18 50 8 19 30 71 48 115 18 44 38 94 45 110 32 78 121
354 140 435 2 8 15 62 29 120 14 58 27 119 30 135 3 17 8 40 10 51 2 12 7 39
10 60 4 22 8 46 11 54 2 8 7 38 10 65 4 28 8 64 11 80 2 17 6 57 10 90 3 33 8
74 10 90 15 134 21 521 10 675 -13 176 -17 225 -21 240 -3 8 -7 40 -10 70 -7
78 -13 123 -25 175 -6 25 -12 60 -15 78 -2 17 -9 55 -15 82 -6 28 -13 64 -16
80 -3 17 -14 59 -24 95 -11 36 -21 76 -24 90 -2 14 -5 25 -6 25 -1 0 -3 9 -5
21 -5 23 -100 317 -114 349 -13 30 -30 72 -40 98 -25 62 -67 161 -102 235 -22
45 -39 85 -39 89 0 3 -7 14 -16 24 -8 9 -16 23 -18 31 -1 8 -11 30 -23 50 -11
19 -24 45 -28 57 -3 11 -11 21 -16 21 -5 0 -9 9 -9 20 0 11 -3 20 -8 20 -7 0
-21 22 -44 73 -7 15 -16 27 -20 27 -4 0 -8 6 -8 13 0 6 -14 32 -30 57 -17 25
-35 52 -40 60 -5 8 -32 48 -60 88 -27 41 -50 77 -50 82 0 5 -3 10 -7 12 -5 2
-28 30 -53 63 -25 33 -48 62 -52 63 -5 2 -8 8 -8 13 0 8 -14 27 -45 63 -6 6
-54 63 -107 127 -132 159 -387 414 -543 544 -33 28 -64 56 -68 63 -4 6 -15 12
-22 12 -8 0 -15 4 -15 8 0 4 -34 33 -75 63 -42 29 -87 64 -101 77 -58 51 -480
322 -503 322 -6 0 -11 4 -11 8 0 5 -16 14 -35 22 -19 8 -35 17 -35 22 0 4 -8
8 -18 8 -10 0 -22 4 -28 9 -14 14 -127 71 -140 71 -7 0 -14 4 -16 8 -6 16
-385 179 -508 218 -25 8 -54 19 -65 24 -35 15 -292 93 -350 106 -16 4 -34 9
-40 12 -5 3 -18 7 -30 8 -11 1 -47 9 -80 18 -33 8 -71 17 -85 20 -14 2 -36 7
-50 10 -14 4 -38 9 -55 11 -16 2 -30 4 -30 5 0 1 -9 3 -20 5 -11 1 -36 5 -55
9 -76 14 -86 16 -127 21 -23 3 -57 8 -75 11 -152 21 -328 37 -440 38 -49 1
-88 5 -88 9 0 4 -9 3 -20 -3 -11 -6 -20 -7 -20 -3 0 10 -301 10 -317 0 -6 -4
-13 -2 -15 4 -2 5 -6 8 -8 5z"/>
</g>
</svg>
